<svg preserveAspectRatio="none" width="100%" height="100%" overflow="visible" style="display: block;" viewBox="0 0 31.9549 25.7746" fill="none" xmlns="http://www.w3.org/2000/svg">
<path id="Vector" d="M18.5379 0.504579C18.8254 0.884494 18.8509 1.28925 18.8498 1.75351C18.8498 1.83403 18.8498 1.91455 18.8498 1.99751C18.8492 2.12833 18.8492 2.12833 18.8486 2.26178C18.8485 2.35458 18.8484 2.44737 18.8482 2.54297C18.848 2.74442 18.8475 2.94587 18.8469 3.14732C18.8458 3.46761 18.8454 3.7879 18.845 4.10819C18.8441 4.84748 18.8425 5.58678 18.8408 6.32607C18.8392 7.00082 18.8379 7.67556 18.8371 8.35031C18.8368 8.61567 18.8363 8.88101 18.8355 9.14636C18.8315 10.3629 18.8469 11.5739 18.917 12.7886C18.979 12.7062 19.041 12.6238 19.103 12.5414C19.1375 12.4955 19.172 12.4496 19.2076 12.4023C19.5029 12.0097 19.7976 11.6168 20.0864 11.2193C20.6797 10.4036 21.296 9.61349 21.9501 8.84555C22.0169 8.76651 22.0169 8.76651 22.0851 8.68587C22.4567 8.25242 22.8634 7.90558 23.315 7.55649C23.3807 7.50479 23.4463 7.45308 23.514 7.39981C24.3417 6.77043 25.4145 6.05756 26.4997 6.11104C27.532 6.31536 28.5976 7.15089 29.1774 8.00672C29.2582 8.24922 29.2558 8.43996 29.2295 8.6939C28.9302 9.28054 28.3779 9.63147 27.8267 9.95926C26.6853 10.6578 25.6996 11.4614 24.7557 12.4094C24.6556 12.5087 24.5555 12.6079 24.4553 12.7071C24.3438 12.818 24.2322 12.9289 24.1206 13.0397C24.0653 13.0944 24.01 13.1491 23.953 13.2055C23.3382 13.7783 23.3382 13.7783 22.86 14.4568C22.939 14.5119 23.018 14.567 23.0993 14.6238C23.7052 15.0482 24.3052 15.4787 24.8952 15.9248C25.2251 16.1741 25.5572 16.4202 25.8908 16.6644C26.4917 17.1043 27.0844 17.5528 27.6704 18.0123C28.0361 18.2987 28.406 18.5783 28.7793 18.8547C29.377 19.2989 29.9503 19.7702 30.5215 20.2478C30.6609 20.3636 30.8016 20.4776 30.943 20.591C30.9845 20.6247 31.026 20.6583 31.0688 20.6929C31.1779 20.7811 31.2873 20.8689 31.3968 20.9566C31.6716 21.2158 31.8515 21.4716 31.9545 21.8357C31.9657 22.494 31.694 22.8957 31.2527 23.3641C30.5669 24.0594 29.7332 24.782 28.7271 24.8688C26.746 24.8214 24.4033 22.0038 23.0377 20.7166C21.4173 19.1832 21.4173 19.1832 19.5236 18.0206C19.9479 19.8707 20.4606 21.6994 21.291 23.4143C21.4897 23.8429 21.5561 24.2212 21.4951 24.6934C21.3332 25.0576 21.1261 25.227 20.7724 25.3853C19.5871 25.8055 18.164 25.9775 16.9976 25.428C15.9948 24.9291 15.477 23.6168 15.1391 22.6122C14.2533 19.8588 13.926 16.9316 13.7756 14.0564C13.7625 13.8079 13.7488 13.5595 13.7347 13.3111C13.7176 13.0105 13.701 12.71 13.6849 12.4094C13.6545 12.4497 13.6241 12.49 13.5928 12.5315C13.1968 13.0236 12.7834 13.2622 12.1684 13.3952C12.0543 13.402 11.94 13.4051 11.8257 13.4052C11.7606 13.4053 11.6956 13.4054 11.6286 13.4055C11.5612 13.4053 11.4938 13.405 11.4243 13.4047C11.3246 13.4051 11.3246 13.4051 11.2228 13.4055C10.847 13.405 10.4934 13.3737 10.1211 13.3194C8.74035 13.2314 8.74035 13.2314 7.51451 13.7791C6.66613 14.6018 6.64701 16.21 6.61762 17.324C6.60253 18.5312 6.6961 19.7066 6.86051 20.9021C6.87022 20.973 6.87993 21.044 6.88994 21.1171C6.97101 21.6953 7.05992 22.2629 7.21595 22.8262C7.35293 23.3556 7.4662 23.9292 7.21772 24.439C6.69836 25.154 6.00235 25.4088 5.16388 25.5796C4.76733 25.6138 4.37679 25.6113 3.97908 25.6033C3.87918 25.6047 3.77929 25.6061 3.67636 25.6075C2.77609 25.6046 2.01573 25.3647 1.31062 24.784C1.19497 24.6583 1.10766 24.5375 1.02182 24.3901C0.99465 24.3461 0.967476 24.3021 0.93948 24.2568C-0.176092 22.2521 0.00753209 19.3969 0.0165269 17.194C0.0171241 17.0371 0.0174652 16.8801 0.0177511 16.7232C0.0323373 9.83638 0.0323374 9.83638 1.62637 7.98983C2.4228 7.21957 3.5476 7.22401 4.58718 7.2366C5.34457 7.25946 5.90865 7.43348 6.487 7.9149C6.67273 8.13416 6.69492 8.29239 6.73255 8.57542C6.75087 8.70195 6.75087 8.70195 6.76957 8.83104C6.78375 9.05811 6.76574 9.2332 6.70885 9.45217C6.82439 9.39044 6.82439 9.39044 6.94226 9.32747C7.04768 9.27262 7.15313 9.21783 7.2586 9.16308C7.30884 9.13605 7.35908 9.10903 7.41084 9.08118C8.1919 8.6796 8.97169 8.57895 9.84146 8.58964C9.97597 8.59063 9.97597 8.59063 10.1132 8.59164C11.3552 8.61244 12.7011 8.82935 13.6091 9.75548C13.6099 9.69089 13.6107 9.62631 13.6115 9.55977C13.619 8.94531 13.6268 8.33086 13.6348 7.71642C13.639 7.40067 13.643 7.08493 13.6468 6.76918C13.6505 6.46336 13.6545 6.15755 13.6586 5.85174C13.6601 5.73619 13.6616 5.62064 13.6629 5.50509C13.6699 4.89264 13.6855 4.28183 13.7207 3.67028C13.7238 3.61712 13.7268 3.56395 13.7299 3.50917C13.7539 3.1238 13.7992 2.75201 13.8887 2.37656C13.9018 2.32034 13.9148 2.26411 13.9283 2.20619C14.0792 1.59901 14.3027 1.05508 14.7181 0.580406C15.746 -0.0287452 17.5342 -0.310912 18.5379 0.504579Z" fill="var(--fill-0, #333333)"/>
</svg>
