<svg preserveAspectRatio="none" width="100%" height="100%" overflow="visible" style="display: block;" viewBox="0 0 16.6334 20.6662" fill="none" xmlns="http://www.w3.org/2000/svg">
<path id="Vector" d="M14.5878 1.85962C14.6329 1.89637 14.678 1.93312 14.7244 1.97099C15.7553 2.90358 16.2398 4.38514 16.4077 5.7268C16.4477 6.62298 16.376 7.50493 16.2867 8.39584C16.2501 8.76317 16.2161 9.13073 16.182 9.49831C16.1752 9.57154 16.1684 9.64477 16.1614 9.72022C15.8884 12.6874 15.7568 15.6421 16.4345 18.5652C16.6733 19.6141 16.6733 19.6141 16.5593 20.0581C16.2221 20.4784 15.7729 20.5434 15.2629 20.6277C14.3398 20.7281 13.0416 20.655 12.2372 20.1339C11.7728 19.7371 11.4955 19.2786 11.3273 18.6932C11.3273 18.6432 11.3273 18.5931 11.3273 18.5416C11.2665 18.5746 11.2057 18.6076 11.143 18.6417C9.03649 19.7451 6.70731 20.0613 4.4057 19.3949C3.18598 18.9837 2.08456 18.3964 1.16646 17.48C1.12296 17.4374 1.07946 17.3948 1.03465 17.3508C0.27413 16.5412 -0.0152753 15.4305 0.000617609 14.3474C0.00133238 14.2713 0.00204714 14.1951 0.00278357 14.1167C0.0148781 13.5183 0.0787661 12.9739 0.256534 12.3996C0.281459 12.3185 0.306384 12.2373 0.332065 12.1537C1.08587 9.97841 2.98495 8.21442 4.98536 7.17729C6.99946 6.20583 9.45967 6.34473 11.5548 6.94003C11.515 6.02337 11.515 6.02337 11.0909 5.24133C9.97629 4.29551 8.70944 4.13659 7.30845 4.21026C6.33954 4.30847 5.47907 4.6925 4.68294 5.23748C4.14848 5.56448 3.37812 5.50243 2.78123 5.38217C1.2284 5.00078 1.2284 5.00078 0.754149 4.57517C0.621732 4.33682 0.605305 4.18237 0.656403 3.91435C0.761789 3.61009 0.956604 3.38839 1.16646 3.14868C1.24593 3.05689 1.24593 3.05689 1.327 2.96326C1.49819 2.76956 1.67273 2.57957 1.8489 2.39041C1.89729 2.33704 1.94567 2.28367 1.99552 2.22868C4.76634 -0.709196 11.5653 -0.649183 14.5878 1.85962ZM5.3559 11.0157C4.80343 11.6817 4.67695 12.3896 4.73033 13.2337C4.87212 14.2197 5.38751 15.403 6.19474 16.0221C7.00819 16.5432 7.7195 16.6339 8.67334 16.4942C9.24543 16.3572 9.73925 16.0341 10.1141 15.5843C10.6154 14.7446 10.8251 13.9771 10.6448 13.0062C10.489 12.5007 10.1967 12.0652 9.88657 11.6413C9.85236 11.5944 9.81815 11.5475 9.7829 11.4991C9.23062 10.8002 8.41086 10.3455 7.53593 10.2006C6.65955 10.1329 5.96187 10.3671 5.3559 11.0157Z" fill="var(--fill-0, #333333)"/>
</svg>
