<svg preserveAspectRatio="none" width="100%" height="100%" overflow="visible" style="display: block;" viewBox="0 0 6.27725 25.685" fill="none" xmlns="http://www.w3.org/2000/svg">
<path id="Vector" d="M5.70222 0.754195C6.1074 1.13268 6.22406 1.62669 6.24485 2.16598C6.24822 2.39842 6.24895 2.63074 6.24891 2.86319C6.24919 2.95254 6.24946 3.04188 6.24975 3.13392C6.25044 3.38129 6.25079 3.62865 6.25099 3.87601C6.25129 4.14304 6.25202 4.41008 6.25268 4.67711C6.25417 5.32155 6.25494 5.966 6.25562 6.61045C6.25595 6.91417 6.25635 7.21789 6.25675 7.52161C6.25804 8.53154 6.25914 9.54148 6.25969 10.5514C6.25983 10.8133 6.25998 11.0751 6.26013 11.337C6.26017 11.4021 6.2602 11.4672 6.26024 11.5342C6.26087 12.5886 6.26279 13.643 6.26525 14.6975C6.26776 15.7807 6.26913 16.864 6.26937 17.9472C6.26953 18.5552 6.27019 19.1631 6.27213 19.771C6.27378 20.2887 6.27439 20.8063 6.27365 21.324C6.27331 21.5879 6.27345 21.8519 6.27492 22.1158C6.27626 22.4024 6.27573 22.689 6.27473 22.9756C6.27556 23.0583 6.2764 23.1411 6.27725 23.2263C6.27107 23.9632 6.07611 24.5868 5.56478 25.1323C4.69679 25.8232 3.33269 25.692 2.29474 25.6397C1.97332 25.5966 1.68671 25.5293 1.38482 25.4122C1.32793 25.3911 1.27104 25.37 1.21243 25.3482C0.760239 25.1532 0.438559 24.8542 0.24741 24.3965C0.0324304 23.7237 0.00874192 23.058 0.0097902 22.3576C0.00961841 22.2729 0.00944653 22.1882 0.00926954 22.1009C0.00879058 21.8178 0.00885165 21.5347 0.00891433 21.2516C0.00868738 21.0483 0.00843149 20.845 0.00814259 20.6416C0.00751405 20.1471 0.00730443 19.6526 0.00726209 19.1581C0.007226 18.756 0.00706999 18.3538 0.00682994 17.9516C0.00616252 16.8101 0.00581211 15.6685 0.00586903 14.527C0.00587206 14.4655 0.00587516 14.4041 0.00587829 14.3407C0.00588139 14.2792 0.00588435 14.2176 0.00588754 14.1542C0.00591835 13.157 0.00519293 12.1598 0.00412365 11.1626C0.00303308 10.1375 0.00251127 9.11231 0.0025767 8.08714C0.00260183 7.5121 0.00239522 6.93706 0.00157703 6.36202C0.000884771 5.87236 0.000723539 5.38271 0.00123686 4.89305C0.00148353 4.64354 0.00140864 4.39403 0.000830747 4.14451C0.000243316 3.87324 0.000598938 3.60198 0.00118191 3.33071C0.000791884 3.25293 0.000401839 3.17516 0 3.09502C0.00375435 2.30035 0.0362734 1.41002 0.591298 0.790035C1.76569 -0.304103 4.47033 -0.210231 5.70222 0.754195Z" fill="var(--fill-0, #333333)"/>
</svg>
