<svg preserveAspectRatio="none" width="100%" height="100%" overflow="visible" style="display: block;" viewBox="0 0 22.288 24.6753" fill="none" xmlns="http://www.w3.org/2000/svg">
<path id="Vector" d="M12.6521 0.00041653C12.7189 0.000279075 12.7858 0.00014162 12.8547 0C15.5442 0.000627426 15.5442 0.000627435 16.7136 0.455379C16.8222 0.495406 16.8222 0.495406 16.9331 0.536241C17.5194 0.757694 18.0805 1.01785 18.6313 1.31625C18.7847 1.39888 18.9392 1.47894 19.0941 1.55872C19.1979 1.61266 19.3017 1.66667 19.4054 1.72074C19.4531 1.74542 19.5008 1.7701 19.55 1.79553C20.0114 2.04052 20.1332 2.18986 20.2917 2.6828C20.4113 2.93744 20.5446 3.1853 20.6767 3.43366C21.0179 4.09445 21.211 4.857 20.9978 5.59236C20.8085 6.00967 20.5316 6.28336 20.1156 6.48268C19.3762 6.72772 18.5548 6.49261 17.8273 6.30828C17.7268 6.2838 17.6263 6.25944 17.5258 6.23519C17.1564 6.14573 16.7877 6.0534 16.4192 5.9605C15.4149 5.70749 14.421 5.52856 13.3914 5.41257C13.3041 5.4025 13.2168 5.39244 13.1269 5.38206C12.9116 5.36079 12.6976 5.34683 12.4815 5.33674C12.3816 5.33098 12.2817 5.32521 12.1788 5.31927C11.6473 5.29733 11.2035 5.28411 10.7591 5.61813C10.6362 5.74142 10.5897 5.83159 10.571 6.00497C10.5867 6.49493 10.7762 6.76144 11.1142 7.10535C11.3789 7.34652 11.6612 7.56228 11.9507 7.77269C11.9986 7.80805 12.0466 7.84342 12.096 7.87986C13.1031 8.58082 14.3114 8.99198 15.4501 9.42609C16.1549 9.69567 16.7892 9.9803 17.4102 10.4172C17.53 10.4975 17.6497 10.5778 17.7695 10.658C18.0726 10.8651 18.3749 11.0735 18.6767 11.2825C18.786 11.358 18.8954 11.4333 19.005 11.5082C20.4817 12.5178 21.8424 13.7996 22.23 15.6261C22.4757 17.4821 21.9279 19.1884 20.8376 20.6902C19.347 22.6313 17.3129 23.7969 14.9411 24.3125C14.8885 24.3239 14.8359 24.3354 14.7817 24.3472C13.7326 24.5581 12.6673 24.627 11.6 24.6537C11.5412 24.6553 11.4823 24.6569 11.4217 24.6586C10.1468 24.6917 8.79435 24.7178 7.57306 24.2982C7.38804 24.2381 7.21082 24.1887 7.02197 24.1453C6.04794 23.9184 5.18216 23.5495 4.28268 23.1182C4.14529 23.0536 4.00785 22.9891 3.87037 22.9248C2.40601 22.2351 0.726426 21.3935 0.0458416 19.8197C-0.00810349 19.5256 -0.00497034 19.2457 0.00792809 18.9477C0.0098097 18.8686 0.0116913 18.7894 0.0136299 18.7079C0.0870553 16.2832 0.0870553 16.2832 0.647423 15.63C0.804112 15.4976 0.804112 15.4976 1.04581 15.4549C1.63701 15.5421 2.02882 15.879 2.46757 16.2653C3.90719 17.5193 5.69501 18.2373 7.55272 18.6065C7.61183 18.6184 7.67094 18.6303 7.73185 18.6425C8.54426 18.7996 9.36203 18.8663 10.1877 18.9098C10.278 18.9157 10.3682 18.9217 10.4612 18.9278C10.9607 18.9478 11.2847 18.9247 11.6868 18.6136C11.799 18.5306 11.799 18.5306 11.9507 18.5306C12.0685 18.1867 12.1546 17.8827 12.0123 17.5354C11.854 17.2801 11.6813 17.1483 11.4267 16.9916C11.3149 16.9226 11.3149 16.9226 11.2008 16.8522C10.8149 16.6208 10.4265 16.3942 10.0361 16.1705C9.95078 16.1214 9.8655 16.0722 9.77764 16.0216C9.36118 15.7819 8.94343 15.5448 8.52277 15.3124C7.68737 14.8503 6.89072 14.3677 6.12367 13.7988C5.94566 13.6668 5.76662 13.5364 5.58744 13.4061C4.75401 12.7983 3.93958 12.1833 3.17933 11.4847C3.00399 11.3236 3.00399 11.3236 2.8076 11.1787C1.90727 10.4192 1.45718 8.95871 1.34438 7.82482C1.2585 6.06248 2.07698 4.42422 3.23058 3.13776C3.27231 3.09065 3.31405 3.04353 3.35705 2.99499C4.94509 1.30894 7.32495 0.435307 9.57635 0.161549C9.62822 0.155176 9.68009 0.148802 9.73353 0.142236C10.7055 0.0263288 11.6739 0.000287636 12.6521 0.00041653Z" fill="var(--fill-0, #333333)"/>
</svg>
