<svg preserveAspectRatio="none" width="100%" height="100%" overflow="visible" style="display: block;" viewBox="0 0 20.2513 26.4954" fill="none" xmlns="http://www.w3.org/2000/svg">
<path id="Vector" d="M18.3682 2.10368C19.633 3.26887 20.1635 5.0748 20.2472 6.74673C20.3337 9.82075 19.0531 12.5356 16.9803 14.7548C16.8788 14.8621 16.777 14.9691 16.6752 15.076C16.6218 15.1343 16.5684 15.1925 16.5134 15.2526C14.9733 16.8805 12.8405 17.9042 10.6848 18.4124C10.5702 18.4404 10.5702 18.4404 10.4532 18.469C9.97269 18.5677 9.49139 18.5812 9.00242 18.5878C8.94081 18.5891 8.8792 18.5905 8.81572 18.5919C8.16294 18.591 7.53203 18.46 6.89348 18.3366C6.86487 18.6922 6.83687 19.0478 6.80935 19.4035C6.79909 19.5359 6.78873 19.6682 6.77829 19.8006C6.70917 20.6815 6.65475 21.5618 6.61624 22.4446C6.60781 22.6266 6.59935 22.8087 6.59086 22.9907C6.57834 23.2598 6.56655 23.5287 6.5571 23.7979C6.54818 24.051 6.53668 24.3038 6.52472 24.5568C6.52281 24.6319 6.5209 24.7071 6.51894 24.7845C6.4915 25.2961 6.36082 25.6383 5.98356 25.9951C5.05955 26.5675 3.78387 26.5874 2.74669 26.36C2.37598 26.2512 2.14552 26.1339 1.8889 25.8435C1.72939 25.4746 1.71659 25.1301 1.72303 24.7345C1.72357 24.6688 1.72411 24.6031 1.72467 24.5355C1.73334 23.8021 1.7634 23.0693 1.79123 22.3365C1.8721 20.1906 1.90594 18.046 1.90761 15.8986C1.90785 15.6956 1.90839 15.4925 1.909 15.2895C1.91485 13.112 1.87328 10.9318 1.60455 8.76816C1.5983 8.7167 1.59205 8.66523 1.58562 8.6122C1.33317 6.54866 0.916171 4.49176 0.230181 2.52665C0.0556981 2.0188 -0.0879661 1.55696 0.0643097 1.02907C0.424615 0.548658 0.858988 0.298588 1.4443 0.173642C2.50818 0.0445562 3.96986 -0.0671336 4.88881 0.578843C5.40111 1.02575 5.64932 1.4867 5.90773 2.1096C5.93637 2.17597 5.96501 2.24234 5.99452 2.31072C6.05939 2.48874 6.05939 2.48874 6.05939 2.71622C6.35382 2.55116 6.59695 2.35988 6.85083 2.13804C10.2139 -0.725037 14.9854 -0.688868 18.3682 2.10368ZM8.67038 6.22974C7.64992 7.41426 7.17794 8.74916 7.26018 10.2987C7.33191 11.1744 7.86029 11.9789 8.48585 12.5737C9.27528 13.21 10.1373 13.4733 11.1398 13.4078C12.1913 13.2396 13.0675 12.7748 13.7185 11.9185C14.4448 10.8181 14.8789 9.64589 14.6655 8.31705C14.4264 7.27199 13.9647 6.0602 13.0355 5.44599C11.6729 4.66523 9.77946 5.15234 8.67038 6.22974Z" fill="var(--fill-0, #333333)"/>
</svg>
