<svg preserveAspectRatio="none" width="100%" height="100%" overflow="visible" style="display: block;" viewBox="0 0 25.6712 25.9332" fill="none" xmlns="http://www.w3.org/2000/svg">
<path id="Vector" d="M14.7958 0.612975C15.3959 1.15925 15.7305 1.89771 16.075 2.61743C16.2097 2.89557 16.3494 3.17117 16.4885 3.44712C16.8531 4.17089 17.209 4.89824 17.5568 5.6302C17.9076 6.36738 18.2658 7.10093 18.6239 7.83461C19.0582 8.72466 19.4909 9.61535 19.9183 10.5087C20.2409 11.1826 20.5672 11.8546 20.8939 12.5264C21.3348 13.4331 21.7744 14.3403 22.2123 15.2484C22.5203 15.887 22.8294 16.5252 23.1388 17.1631C23.2157 17.3216 23.2926 17.4802 23.3694 17.6387C23.4202 17.7435 23.471 17.8483 23.5218 17.9531C23.5468 18.0047 23.5719 18.0564 23.5977 18.1096C23.7457 18.415 23.894 18.7202 24.0425 19.0254C24.8839 20.7553 24.8839 20.7553 25.2445 21.5593C25.2681 21.6115 25.2917 21.6638 25.316 21.7176C25.5782 22.3122 25.7944 22.9469 25.5905 23.5912C25.0684 24.7136 23.9339 25.2636 22.837 25.7014C22.1141 25.9448 21.4718 26.0576 20.7576 25.7311C19.9953 25.3193 19.6812 24.5454 19.3253 23.8009C19.269 23.6857 19.2127 23.5704 19.1563 23.4552C19.0172 23.1706 18.8796 22.8852 18.7426 22.5995C18.6715 22.4512 18.6002 22.3031 18.5287 22.1551C18.3193 21.721 18.1112 21.2864 17.9057 20.8504C17.8556 20.7453 17.8025 20.6417 17.7471 20.5393C17.6808 20.3935 17.6808 20.3935 17.6808 20.166C12.9139 20.2035 12.9139 20.2035 8.05073 20.2418C7.42516 21.518 6.79958 22.7942 6.15505 24.109C5.35754 25.5711 5.35754 25.5711 4.5692 25.8237C3.39437 26.0415 2.19471 25.504 1.22629 24.8673C0.703588 24.4627 0.169591 24.016 0.0130622 23.3507C-0.101837 22.2592 0.566268 21.2026 1.03673 20.2608C1.1059 20.1209 1.17498 19.981 1.24399 19.8411C1.37947 19.5664 1.51522 19.2919 1.65119 19.0175C1.87355 18.568 2.09102 18.1163 2.30683 17.6637C2.6488 16.9485 2.99383 16.2348 3.33997 15.5216C3.72311 14.7321 4.10563 13.9424 4.48686 13.152C4.86808 12.3616 5.25062 11.5719 5.63374 10.7824C5.98449 10.0596 6.33414 9.33641 6.6811 8.61184C7.09795 7.74143 7.5196 6.8734 7.94169 6.00553C8.25145 5.36852 8.56021 4.73104 8.86754 4.09286C9.03835 3.73817 9.20976 3.38378 9.38129 3.02944C9.45048 2.88633 9.5195 2.74313 9.58826 2.59981C10.1177 1.49705 10.6504 0.60797 11.8421 0.147646C12.8759 -0.130251 13.911 -0.0377298 14.7958 0.612975ZM12.752 10.3843C12.5104 10.8765 12.269 11.3688 12.0277 11.8611C11.9457 12.0283 11.8638 12.1955 11.7817 12.3626C11.6632 12.604 11.5448 12.8456 11.4265 13.0871C11.3903 13.1608 11.3541 13.2344 11.3168 13.3103C10.859 14.0934 10.859 14.0934 10.6288 14.9339C12.0802 14.9339 13.5315 14.9339 15.0268 14.9339C14.9267 14.6335 14.8343 14.377 14.6986 14.0972C14.6635 14.0243 14.6283 13.9514 14.5921 13.8763C14.5541 13.7984 14.5162 13.7204 14.4771 13.6401C14.4378 13.5588 14.3984 13.4775 14.3579 13.3937C14.2729 13.2178 14.1877 13.042 14.1024 12.8662C13.9575 12.5675 13.8132 12.2685 13.669 11.9696C13.4141 11.441 13.159 10.9126 12.9037 10.3843C12.8536 10.3843 12.8036 10.3843 12.752 10.3843Z" fill="var(--fill-0, #333333)"/>
</svg>
