<svg preserveAspectRatio="none" width="100%" height="100%" overflow="visible" style="display: block;" viewBox="0 0 18.855 25.789" fill="none" xmlns="http://www.w3.org/2000/svg">
<path id="Vector" d="M4.48971 0.371241C5.90822 1.56674 6.64733 3.36299 7.29063 5.05269C8.09852 7.18883 8.09852 7.18883 9.59856 8.81174C10.1159 8.75015 10.5276 8.23874 10.8494 7.86212C12.0753 6.25604 12.8374 4.3316 13.6361 2.49203C13.6661 2.42364 13.6961 2.35525 13.727 2.28478C13.7811 2.16136 13.8346 2.03766 13.8872 1.91361C14.1155 1.39432 14.4465 0.806044 14.9538 0.522895C15.6047 0.400626 16.1235 0.695643 16.66 1.02999C17.5367 1.64233 18.509 2.73605 18.7881 3.79471C19.1386 6.09967 18.0458 8.37851 17.0249 10.3757C16.9505 10.5228 16.8761 10.6698 16.8018 10.817C16.3201 11.7663 15.8245 12.7055 15.2821 13.6218C15.1844 13.7874 15.0887 13.954 14.9935 14.1211C13.7656 16.2648 12.3298 18.3293 10.8592 20.3138C10.801 20.3922 10.801 20.3922 10.7417 20.4723C10.5142 20.7786 10.2851 21.0837 10.0546 21.3879C9.95469 21.5198 9.85525 21.6521 9.75584 21.7844C8.53621 23.3989 7.1561 25.112 5.17216 25.7733C4.14079 25.8796 3.2224 25.4336 2.42313 24.8047C1.97406 24.3882 1.68379 23.8736 1.3808 23.3468C1.33486 23.2744 1.28892 23.202 1.24159 23.1274C0.947701 22.6451 0.808222 22.2429 0.925842 21.6786C1.20321 20.9126 1.92081 20.379 2.53065 19.8748C2.93011 19.5433 3.25898 19.1623 3.59267 18.7663C3.79675 18.5249 4.00374 18.2952 4.23113 18.0754C4.48316 17.8271 4.67848 17.5636 4.86885 17.2665C4.90081 17.2174 4.93277 17.1683 4.9657 17.1178C5.06088 16.9705 5.15473 16.8225 5.24798 16.6741C5.27545 16.6304 5.30292 16.5867 5.33122 16.5418C5.86771 15.6802 6.08848 14.8724 5.88274 13.8616C5.36383 12.3131 4.13955 10.9178 3.16542 9.62793C-0.0411318 5.37963 -0.0411317 5.37963 0.011178 3.69341C0.223915 2.29228 1.50639 1.0876 2.56797 0.265201C3.19001 -0.159859 3.89834 -0.0367522 4.48971 0.371241Z" fill="var(--fill-0, #333333)"/>
</svg>
