<svg preserveAspectRatio="none" width="100%" height="100%" overflow="visible" style="display: block;" viewBox="0 0 247.644 54" fill="none" xmlns="http://www.w3.org/2000/svg">
<g id="Group 2861916">
<path id="Vector" d="M129.339 0.863785C129.799 1.47078 129.84 2.11745 129.838 2.85921C129.838 2.98786 129.838 3.1165 129.838 3.24905C129.837 3.45805 129.837 3.45805 129.836 3.67127C129.836 3.81953 129.836 3.96779 129.835 4.12054C129.835 4.44239 129.834 4.76424 129.833 5.0861C129.832 5.59783 129.831 6.10955 129.83 6.62128C129.829 7.80246 129.826 8.98363 129.823 10.1648C129.821 11.2428 129.819 12.3209 129.818 13.3989C129.817 13.8229 129.816 14.2468 129.815 14.6708C129.809 16.6144 129.833 18.5493 129.945 20.4899C130.044 20.3583 130.143 20.2267 130.242 20.095C130.297 20.0217 130.353 19.9484 130.409 19.8729C130.881 19.2456 131.352 18.6178 131.814 17.9827C132.761 16.6795 133.746 15.4171 134.791 14.1902C134.898 14.0639 134.898 14.0639 135.007 13.9351C135.601 13.2425 136.25 12.6884 136.972 12.1307C137.077 12.048 137.182 11.9654 137.29 11.8803C138.612 10.8748 140.326 9.7358 142.06 9.82125C143.709 10.1477 145.412 11.4826 146.338 12.85C146.467 13.2374 146.463 13.5422 146.421 13.9479C145.943 14.8852 145.061 15.4458 144.18 15.9696C142.357 17.0856 140.782 18.3695 139.274 19.8842C139.114 20.0428 138.954 20.2013 138.794 20.3598C138.616 20.537 138.437 20.7141 138.259 20.8913C138.171 20.9786 138.082 21.066 137.991 21.156C137.009 22.0713 137.009 22.0713 136.245 23.1552C136.371 23.2433 136.497 23.3314 136.627 23.4221C137.595 24.1002 138.554 24.788 139.497 25.5008C140.024 25.8991 140.554 26.2922 141.087 26.6824C142.047 27.3852 142.994 28.1018 143.931 28.8359C144.515 29.2935 145.106 29.7403 145.702 30.1819C146.657 30.8915 147.573 31.6446 148.486 32.4076C148.709 32.5926 148.933 32.7748 149.159 32.956C149.226 33.0097 149.292 33.0634 149.36 33.1187C149.534 33.2597 149.709 33.3999 149.884 33.54C150.323 33.9542 150.611 34.3628 150.775 34.9446C150.793 35.9963 150.359 36.6382 149.654 37.3866C148.558 38.4974 147.226 39.652 145.619 39.7905C142.454 39.7149 138.711 35.2132 136.529 33.1567C133.94 30.7067 133.94 30.7067 130.914 28.8492C131.592 31.8051 132.411 34.7269 133.738 37.4667C134.056 38.1516 134.162 38.7559 134.064 39.5104C133.806 40.0923 133.475 40.3628 132.91 40.6159C131.016 41.2871 128.742 41.5619 126.879 40.684C125.276 39.8869 124.449 37.7903 123.909 36.1852C122.494 31.7861 121.971 27.1093 121.731 22.5156C121.71 22.1186 121.688 21.7217 121.665 21.3247C121.638 20.8446 121.612 20.3644 121.586 19.8842C121.537 19.9485 121.489 20.0129 121.439 20.0792C120.806 20.8654 120.146 21.2466 119.163 21.4591C118.981 21.47 118.798 21.475 118.615 21.4752C118.511 21.4754 118.408 21.4755 118.3 21.4757C118.193 21.4752 118.085 21.4748 117.974 21.4743C117.815 21.475 117.815 21.475 117.652 21.4757C117.052 21.4748 116.487 21.4249 115.892 21.338C113.686 21.1975 113.686 21.1975 111.727 22.0725C110.372 23.387 110.341 25.9564 110.294 27.7362C110.27 29.665 110.42 31.543 110.682 33.4529C110.698 33.5663 110.714 33.6797 110.73 33.7965C110.859 34.7202 111.001 35.6271 111.25 36.5271C111.469 37.3729 111.65 38.2894 111.253 39.1039C110.423 40.2462 109.311 40.6534 107.972 40.9263C107.338 40.9809 106.714 40.9769 106.079 40.9642C105.919 40.9663 105.76 40.9685 105.595 40.9708C104.157 40.9661 102.942 40.5829 101.815 39.6552C101.631 39.4542 101.491 39.2613 101.354 39.0258C101.311 38.9555 101.267 38.8852 101.222 38.8128C99.4401 35.6099 99.7335 31.0481 99.7478 27.5285C99.7488 27.2778 99.7493 27.0271 99.7498 26.7764C99.7731 15.7732 99.7731 15.7732 102.32 12.823C103.592 11.5923 105.389 11.5994 107.05 11.6196C108.26 11.6561 109.162 11.9341 110.086 12.7033C110.382 13.0536 110.418 13.3064 110.478 13.7586C110.507 13.9608 110.507 13.9608 110.537 14.167C110.56 14.5298 110.531 14.8095 110.44 15.1594C110.625 15.0608 110.625 15.0608 110.813 14.9602C110.982 14.8725 111.15 14.785 111.319 14.6975C111.399 14.6543 111.479 14.6111 111.562 14.5667C112.81 13.925 114.056 13.7642 115.445 13.7813C115.66 13.7829 115.66 13.7829 115.879 13.7845C117.864 13.8177 120.014 14.1643 121.465 15.644C121.466 15.5408 121.467 15.4376 121.469 15.3313C121.481 14.3496 121.493 13.3679 121.506 12.3862C121.513 11.8817 121.519 11.3772 121.525 10.8728C121.531 10.3842 121.537 9.89556 121.544 9.40696C121.546 9.22235 121.549 9.03774 121.551 8.85313C121.562 7.87461 121.587 6.89871 121.643 5.92164C121.648 5.8367 121.653 5.75175 121.658 5.66423C121.696 5.04853 121.769 4.45451 121.912 3.85465C121.932 3.76483 121.953 3.675 121.975 3.58245C122.216 2.61237 122.573 1.74332 123.237 0.984934C124.879 0.0116909 127.736 -0.439128 129.339 0.863785Z" fill="var(--fill-0, #333333)"/>
<path id="Vector_2" d="M20.2143 0.818785C20.3211 0.818565 20.4279 0.818345 20.5379 0.818119C24.835 0.819121 24.835 0.819122 26.7033 1.54568C26.8769 1.60963 26.8769 1.60963 27.054 1.67487C27.9908 2.02869 28.8873 2.44435 29.7673 2.92109C30.0123 3.05312 30.2593 3.18103 30.5068 3.30849C30.6726 3.39468 30.8384 3.48096 31.0041 3.56736C31.0803 3.60679 31.1566 3.64622 31.2351 3.68685C31.9723 4.07826 32.1669 4.31686 32.4201 5.10444C32.6112 5.51128 32.8243 5.90729 33.0353 6.3041C33.5804 7.35984 33.8889 8.57817 33.5483 9.75306C33.2458 10.4198 32.8035 10.8571 32.1387 11.1755C30.9575 11.567 29.645 11.1914 28.4827 10.8969C28.3222 10.8578 28.1616 10.8188 28.001 10.7801C27.4108 10.6372 26.8218 10.4897 26.2329 10.3412C24.6284 9.93701 23.0404 9.65112 21.3955 9.46581C21.256 9.44972 21.1166 9.43364 20.9729 9.41706C20.6288 9.38308 20.287 9.36077 19.9417 9.34466C19.7821 9.33544 19.6225 9.32623 19.4581 9.31674C18.6089 9.28169 17.8998 9.26057 17.1898 9.79423C16.9934 9.99121 16.9192 10.1353 16.8893 10.4123C16.9145 11.1951 17.2172 11.6209 17.7572 12.1704C18.1801 12.5557 18.6311 12.9004 19.0937 13.2366C19.1703 13.2931 19.2469 13.3496 19.3258 13.4078C20.9348 14.5277 22.8654 15.1846 24.6847 15.8782C25.8107 16.3089 26.8242 16.7637 27.8164 17.4617C28.0077 17.59 28.199 17.7183 28.3904 17.8464C28.8747 18.1773 29.3576 18.5103 29.8399 18.8442C30.0144 18.9648 30.1892 19.0851 30.3644 19.2049C32.7237 20.8179 34.8977 22.8658 35.5169 25.784C35.9095 28.7493 35.0343 31.4755 33.2922 33.875C30.9108 36.9763 27.6609 38.8385 23.8715 39.6622C23.7874 39.6806 23.7033 39.6989 23.6167 39.7178C21.9406 40.0547 20.2387 40.1647 18.5333 40.2074C18.4394 40.21 18.3454 40.2126 18.2485 40.2152C16.2115 40.2681 14.0508 40.3099 12.0995 39.6394C11.8039 39.5434 11.5207 39.4645 11.219 39.3951C9.66282 39.0326 8.27956 38.4432 6.84245 37.7541C6.62295 37.651 6.40336 37.548 6.1837 37.4451C3.84408 36.3433 1.16061 34.9985 0.0732413 32.4841C-0.012947 32.0143 -0.00794113 31.567 0.0126667 31.0909C0.015673 30.9645 0.0186792 30.838 0.0217766 30.7078C0.139089 26.8338 0.139089 26.8338 1.03439 25.7902C1.28473 25.5786 1.28473 25.5786 1.6709 25.5105C2.61545 25.6499 3.24146 26.188 3.94244 26.8053C6.24252 28.8088 9.09894 29.956 12.067 30.5458C12.1615 30.5648 12.2559 30.5838 12.3532 30.6034C13.6512 30.8543 14.9578 30.9609 16.2769 31.0304C16.4212 31.0398 16.5654 31.0493 16.714 31.0591C17.512 31.0911 18.0296 31.0543 18.6721 30.5571C18.8514 30.4246 18.8514 30.4246 19.0937 30.4246C19.2819 29.875 19.4195 29.3895 19.1921 28.8345C18.9392 28.4266 18.6633 28.2161 18.2565 27.9657C18.0778 27.8554 18.0778 27.8554 17.8955 27.7429C17.2789 27.3733 16.6584 27.0112 16.0346 26.6538C15.8984 26.5753 15.7621 26.4968 15.6218 26.4159C14.9564 26.0329 14.2889 25.654 13.6169 25.2829C12.2821 24.5445 11.0093 23.7734 9.78381 22.8644C9.49941 22.6537 9.21334 22.4453 8.92707 22.2371C7.59549 21.266 6.29428 20.2835 5.07964 19.1672C4.79948 18.9099 4.79948 18.9099 4.48572 18.6783C3.04725 17.4649 2.32814 15.1315 2.14792 13.3199C2.01071 10.5042 3.3184 7.88671 5.16151 5.83133C5.22819 5.75606 5.29487 5.68078 5.36358 5.60323C7.90078 2.90941 11.7031 1.51361 15.3002 1.07623C15.383 1.06604 15.4659 1.05586 15.5513 1.04537C17.1042 0.860185 18.6515 0.818579 20.2143 0.818785Z" fill="var(--fill-0, #333333)"/>
<path id="Vector_3" d="M217.409 1.12291C218.368 1.99569 218.902 3.17553 219.453 4.32543C219.668 4.76981 219.891 5.21014 220.114 5.65103C220.696 6.80741 221.265 7.96949 221.82 9.13895C222.381 10.3167 222.953 11.4887 223.525 12.6609C224.219 14.083 224.91 15.506 225.593 16.9334C226.109 18.01 226.63 19.0836 227.152 20.157C227.856 21.6056 228.559 23.0552 229.258 24.506C229.751 25.5263 230.244 26.5459 230.739 27.5652C230.862 27.8184 230.984 28.0717 231.107 28.325C231.188 28.4924 231.27 28.6598 231.351 28.8273C231.391 28.9098 231.431 28.9923 231.472 29.0773C231.708 29.5652 231.945 30.0529 232.183 30.5405C233.527 33.3044 233.527 33.3044 234.103 34.5889C234.141 34.6724 234.178 34.7559 234.217 34.8419C234.636 35.7919 234.982 36.8059 234.656 37.8354C233.822 39.6286 232.009 40.5072 230.257 41.2067C229.102 41.5956 228.075 41.7759 226.934 41.2542C225.716 40.5962 225.214 39.3598 224.646 38.1704C224.556 37.9862 224.466 37.8021 224.376 37.6181C224.154 37.1633 223.934 36.7073 223.715 36.2508C223.601 36.014 223.487 35.7774 223.373 35.5408C223.039 34.8473 222.706 34.1529 222.378 33.4563C222.298 33.2885 222.213 33.1228 222.124 32.9593C222.018 32.7263 222.018 32.7263 222.018 32.3628C214.402 32.4228 214.402 32.4228 206.632 32.484C205.633 34.5229 204.634 36.5619 203.604 38.6626C202.33 40.9986 202.33 40.9986 201.07 41.4022C199.193 41.7502 197.276 40.8914 195.729 39.8741C194.894 39.2278 194.041 38.514 193.791 37.4511C193.607 35.7071 194.675 34.0191 195.426 32.5143C195.537 32.2908 195.647 32.0673 195.757 31.8437C195.974 31.4049 196.191 30.9663 196.408 30.5278C196.763 29.8097 197.111 29.0881 197.455 28.3649C198.002 27.2222 198.553 26.0819 199.106 24.9424C199.718 23.6811 200.329 22.4193 200.938 21.1565C201.548 19.8937 202.159 18.632 202.771 17.3706C203.331 16.2159 203.89 15.0604 204.444 13.9027C205.11 12.5121 205.784 11.1252 206.458 9.73861C206.953 8.72085 207.446 7.70236 207.937 6.68273C208.21 6.11604 208.484 5.54983 208.758 4.98371C208.869 4.75505 208.979 4.52626 209.089 4.29728C209.935 2.5354 210.786 1.11491 212.69 0.379449C214.342 -0.0645476 215.995 0.0832737 217.409 1.12291ZM214.144 16.7346C213.758 17.521 213.372 18.3075 212.987 19.0941C212.856 19.3612 212.725 19.6283 212.593 19.8953C212.404 20.2811 212.215 20.667 212.026 21.0529C211.968 21.1706 211.91 21.2882 211.851 21.4095C211.119 22.6606 211.119 22.6606 210.752 24.0035C213.07 24.0035 215.389 24.0035 217.778 24.0035C217.618 23.5236 217.471 23.1137 217.254 22.6666C217.198 22.5502 217.141 22.4338 217.084 22.3138C217.023 22.1893 216.962 22.0647 216.9 21.9364C216.837 21.8065 216.774 21.6766 216.71 21.5427C216.574 21.2617 216.437 20.9807 216.301 20.6999C216.07 20.2227 215.839 19.7451 215.609 19.2674C215.202 18.4229 214.794 17.5787 214.386 16.7346C214.306 16.7346 214.226 16.7346 214.144 16.7346Z" fill="var(--fill-0, #333333)"/>
<path id="Vector_4" d="M64.5643 15.0292C66.5851 16.8908 67.4326 19.7762 67.5664 22.4474C67.7045 27.3588 65.6585 31.6962 62.3468 35.2419C62.1847 35.4133 62.022 35.5843 61.8593 35.7552C61.774 35.8482 61.6888 35.9413 61.6009 36.0372C59.1402 38.6382 55.7327 40.2737 52.2885 41.0857C52.1053 41.1305 52.1053 41.1305 51.9184 41.1761C51.1507 41.3338 50.3817 41.3554 49.6005 41.3659C49.5021 41.368 49.4036 41.3702 49.3022 41.3724C48.2593 41.3711 47.2513 41.1618 46.2311 40.9646C46.1853 41.5327 46.1406 42.101 46.0966 42.6692C46.0802 42.8807 46.0637 43.0921 46.047 43.3036C45.9366 44.711 45.8496 46.1175 45.7881 47.5279C45.7746 47.8188 45.7611 48.1096 45.7475 48.4005C45.7275 48.8303 45.7087 49.2601 45.6936 49.6901C45.6794 50.0945 45.661 50.4985 45.6419 50.9026C45.6388 51.0227 45.6358 51.1428 45.6326 51.2665C45.5888 52.0838 45.38 52.6305 44.7773 53.2006C43.301 54.1152 41.2628 54.1469 39.6057 53.7837C39.0134 53.6098 38.6452 53.4223 38.2352 52.9583C37.9804 52.369 37.9599 51.8185 37.9702 51.1865C37.9711 51.0816 37.9719 50.9767 37.9728 50.8685C37.9867 49.6969 38.0347 48.5261 38.0792 47.3553C38.2084 43.9267 38.2624 40.5004 38.2651 37.0694C38.2655 36.745 38.2663 36.4206 38.2673 36.0962C38.2767 32.6173 38.2103 29.1339 37.7809 25.6771C37.7709 25.5948 37.7609 25.5126 37.7507 25.4279C37.3473 22.131 36.6811 18.8446 35.5851 15.705C35.3063 14.8936 35.0768 14.1557 35.3201 13.3123C35.8957 12.5447 36.5897 12.1452 37.5249 11.9456C39.2246 11.7393 41.56 11.5609 43.0282 12.593C43.8467 13.307 44.2433 14.0434 44.6561 15.0387C44.7019 15.1447 44.7476 15.2507 44.7948 15.36C44.8984 15.6444 44.8984 15.6444 44.8984 16.0079C45.3688 15.7441 45.7573 15.4385 46.1629 15.0841C51.5362 10.5097 59.1596 10.5675 64.5643 15.0292ZM49.07 21.6214C47.4396 23.5139 46.6855 25.6467 46.8169 28.1224C46.9315 29.5216 47.7757 30.8069 48.7752 31.7572C50.0365 32.7738 51.4137 33.1945 53.0154 33.0899C54.6954 32.8212 56.0953 32.0784 57.1354 30.7104C58.2959 28.9522 58.9894 27.0794 58.6484 24.9563C58.2664 23.2866 57.5288 21.3505 56.0441 20.3692C53.8672 19.1218 50.842 19.9001 49.07 21.6214Z" fill="var(--fill-0, #333333)"/>
<path id="Vector_5" d="M158.173 12.3736C160.439 14.2837 161.62 17.1535 162.648 19.8532C163.939 23.2661 163.939 23.2661 166.335 25.859C167.162 25.7606 167.82 24.9435 168.334 24.3418C170.293 21.7758 171.51 18.7011 172.786 15.762C172.834 15.6527 172.882 15.5435 172.931 15.4309C173.018 15.2337 173.103 15.036 173.187 14.8378C173.552 14.0082 174.081 13.0683 174.892 12.6159C175.931 12.4206 176.76 12.8919 177.617 13.4261C179.018 14.4044 180.572 16.1519 181.018 17.8433C181.578 21.5259 179.832 25.1668 178.2 28.3577C178.082 28.5927 177.963 28.8277 177.844 29.0628C177.074 30.5796 176.283 32.0801 175.416 33.5441C175.26 33.8087 175.107 34.0749 174.955 34.3418C172.993 37.7668 170.699 41.0653 168.35 44.2358C168.257 44.3612 168.257 44.3612 168.162 44.4891C167.798 44.9785 167.432 45.4661 167.064 45.952C166.904 46.1628 166.746 46.3741 166.587 46.5855C164.638 49.1651 162.433 51.902 159.263 52.9586C157.616 53.1284 156.148 52.4159 154.871 51.4111C154.154 50.7456 153.69 49.9235 153.206 49.0818C153.132 48.9661 153.059 48.8504 152.983 48.7311C152.514 47.9607 152.291 47.318 152.479 46.4165C152.922 45.1926 154.069 44.34 155.043 43.5345C155.681 43.0049 156.207 42.3962 156.74 41.7635C157.066 41.3778 157.397 41.0107 157.76 40.6596C158.163 40.263 158.475 39.842 158.779 39.3672C158.83 39.2888 158.881 39.2104 158.933 39.1296C159.086 38.8943 159.236 38.6579 159.384 38.4207C159.428 38.3509 159.472 38.2812 159.517 38.2093C160.375 36.8327 160.727 35.5422 160.399 33.9273C159.57 31.4531 157.614 29.2239 156.057 27.1631C150.934 20.3755 150.934 20.3755 151.018 17.6814C151.358 15.4429 153.407 13.5181 155.103 12.2042C156.096 11.5251 157.228 11.7217 158.173 12.3736Z" fill="var(--fill-0, #333333)"/>
<path id="Vector_6" d="M92.9945 12.4945C93.0665 12.5532 93.1385 12.612 93.2127 12.6725C94.8597 14.1625 95.6338 16.5296 95.9021 18.6731C95.966 20.105 95.8515 21.5141 95.7088 22.9375C95.6503 23.5243 95.5959 24.1116 95.5415 24.6989C95.5306 24.8159 95.5197 24.9329 95.5085 25.0534C95.0724 29.7941 94.8622 34.5149 95.945 39.1852C96.3265 40.8609 96.3265 40.8609 96.1444 41.5703C95.6055 42.2418 94.888 42.3457 94.073 42.4804C92.5981 42.6408 90.524 42.524 89.2389 41.6915C88.4969 41.0574 88.0538 40.3248 87.7851 39.3896C87.7851 39.3097 87.7851 39.2297 87.7851 39.1473C87.688 39.2001 87.5908 39.2529 87.4907 39.3073C84.1251 41.0703 80.4037 41.5754 76.7265 40.5107C74.7777 39.8537 73.018 38.9154 71.5511 37.4513C71.4816 37.3832 71.4121 37.3151 71.3405 37.2449C70.1254 35.9513 69.663 34.1768 69.6884 32.4463C69.6896 32.3246 69.6907 32.203 69.6919 32.0777C69.7112 31.1217 69.8133 30.2519 70.0973 29.3343C70.1371 29.2046 70.177 29.075 70.218 28.9415C71.4223 25.4659 74.4565 22.6476 77.6526 20.9906C80.8705 19.4385 84.8012 19.6604 88.1485 20.6115C88.085 19.147 88.085 19.147 87.4075 17.8975C85.6266 16.3864 83.6026 16.1324 81.3642 16.2501C79.8162 16.4071 78.4414 17.0206 77.1694 17.8913C76.3155 18.4138 75.0847 18.3147 74.131 18.1225C71.6501 17.5132 71.6501 17.5132 70.8924 16.8332C70.6808 16.4524 70.6546 16.2056 70.7362 15.7774C70.9046 15.2913 71.2158 14.937 71.5511 14.5541C71.6781 14.4074 71.6781 14.4074 71.8076 14.2578C72.0811 13.9483 72.36 13.6448 72.6415 13.3426C72.7188 13.2573 72.7961 13.172 72.8757 13.0842C77.3027 8.39032 88.1653 8.4862 92.9945 12.4945ZM78.2446 27.1233C77.3619 28.1874 77.1598 29.3183 77.2451 30.6669C77.4717 32.2423 78.2951 34.1329 79.5848 35.122C80.8845 35.9546 82.0209 36.0994 83.5449 35.8763C84.4589 35.6573 85.2479 35.1411 85.8467 34.4225C86.6477 33.0809 86.9827 31.8546 86.6948 30.3034C86.4458 29.4958 85.9787 28.8 85.4833 28.1228C85.4286 28.0478 85.3739 27.9728 85.3176 27.8956C84.4352 26.7789 83.1255 26.0524 81.7276 25.8209C80.3274 25.7128 79.2128 26.087 78.2446 27.1233Z" fill="var(--fill-0, #333333)"/>
<path id="Vector_7" d="M246.725 1.20498C247.373 1.80969 247.559 2.59896 247.592 3.4606C247.598 3.83196 247.599 4.20314 247.599 4.57454C247.599 4.71728 247.6 4.86002 247.6 5.00708C247.601 5.4023 247.602 5.7975 247.602 6.19272C247.602 6.61936 247.604 7.04599 247.605 7.47263C247.607 8.50227 247.608 9.5319 247.609 10.5615C247.61 11.0468 247.611 11.532 247.611 12.0173C247.613 13.6309 247.615 15.2445 247.616 16.858C247.616 17.2764 247.616 17.6948 247.617 18.1132C247.617 18.2171 247.617 18.3211 247.617 18.4282C247.618 20.1129 247.621 21.7975 247.625 23.4822C247.629 25.2129 247.631 26.9436 247.631 28.6744C247.632 29.6456 247.633 30.6169 247.636 31.5882C247.638 32.4153 247.639 33.2424 247.638 34.0694C247.638 34.4911 247.638 34.9128 247.64 35.3345C247.642 35.7924 247.642 36.2503 247.64 36.7082C247.641 36.8404 247.643 36.9726 247.644 37.1088C247.634 38.2862 247.323 39.2824 246.506 40.154C245.119 41.2578 242.939 41.0481 241.281 40.9646C240.768 40.8957 240.31 40.7883 239.827 40.6012C239.736 40.5674 239.645 40.5337 239.552 40.499C238.829 40.1874 238.315 39.7097 238.01 38.9784C237.667 37.9034 237.629 36.8399 237.63 35.7209C237.63 35.5855 237.63 35.4502 237.63 35.3107C237.629 34.8584 237.629 34.406 237.629 33.9537C237.629 33.6289 237.628 33.3041 237.628 32.9792C237.627 32.1892 237.626 31.3991 237.626 30.609C237.626 29.9665 237.626 29.3239 237.626 28.6814C237.625 26.8575 237.624 25.0337 237.624 23.2099C237.624 23.1116 237.624 23.0134 237.624 22.9122C237.624 22.8139 237.624 22.7155 237.624 22.6142C237.624 21.021 237.623 19.4278 237.621 17.8346C237.62 16.1967 237.619 14.5588 237.619 12.9209C237.619 12.0021 237.619 11.0834 237.617 10.1646C237.616 9.38229 237.616 8.59998 237.617 7.81765C237.617 7.419 237.617 7.02035 237.616 6.6217C237.615 6.18829 237.616 5.7549 237.617 5.32149C237.616 5.19722 237.615 5.07296 237.615 4.94493C237.621 3.67528 237.673 2.2528 238.559 1.26224C240.436 -0.485867 244.757 -0.335887 246.725 1.20498Z" fill="var(--fill-0, #333333)"/>
</g>
</svg>
